<svg width="21" height="16" viewBox="0 0 21 16" fill="none" xmlns="http://www.w3.org/2000/svg">
<path d="M1.39944 0.501167C1.06785 0.554221 0.770929 0.736821 0.57398 1.0088C0.37703 1.28078 0.29619 1.61985 0.349243 1.95143C0.402296 2.28302 0.584897 2.57994 0.856874 2.77689C1.12885 2.97384 1.46793 3.05468 1.79951 3.00163H5.5502L5.77524 3.62674L6.80043 6.75232L7.82562 9.8779C7.92564 10.203 8.35072 10.503 8.67578 10.503H17.4274C17.7775 10.503 18.1775 10.203 18.2775 9.8779L20.3029 3.62674C20.4029 3.30168 20.2529 3.00163 19.9028 3.00163H8.8008L7.85063 1.2013C7.74942 0.994657 7.59316 0.819953 7.39904 0.696422C7.20492 0.572892 6.98048 0.505327 6.75042 0.501167L1.7495 0.501167C1.67464 0.494403 1.59932 0.494403 1.52446 0.501167C1.4745 0.498164 1.4244 0.498164 1.37443 0.501167L1.39944 0.501167ZM9.30089 13.0035C8.60076 13.0035 8.05066 13.5536 8.05066 14.2537C8.05066 14.9538 8.60076 15.5039 9.30089 15.5039C10.001 15.5039 10.5511 14.9538 10.5511 14.2537C10.5511 13.5536 10.001 13.0035 9.30089 13.0035ZM16.8023 13.0035C16.1021 13.0035 15.552 13.5536 15.552 14.2537C15.552 14.9538 16.1021 15.5039 16.8023 15.5039C17.5024 15.5039 18.0525 14.9538 18.0525 14.2537C18.0525 13.5536 17.5024 13.0035 16.8023 13.0035Z" fill="#676767"/>
</svg>
