<svg width="21" height="18" viewBox="0 0 21 18" fill="none" xmlns="http://www.w3.org/2000/svg">
<path d="M5.66667 0.475098C4.29167 0.475098 3.06667 1.0501 2.14167 1.9501C1.24167 2.8501 0.666672 4.0751 0.666672 5.4751C0.666672 6.8501 1.24167 8.0751 2.14167 9.0001L10.6667 17.5251L19.1917 9.0001C20.0917 8.1001 20.6667 6.8751 20.6667 5.4751C20.6667 4.1001 20.0917 2.8751 19.1917 1.9501C18.2917 1.0501 17.0667 0.475098 15.6667 0.475098C14.2917 0.475098 13.0667 1.0501 12.1417 1.9501C11.2417 2.8501 10.6667 4.0751 10.6667 5.4751C10.6667 4.1001 10.0917 2.8751 9.19167 1.9501C8.29167 1.0501 7.06667 0.475098 5.66667 0.475098Z" fill="#676767"/>
</svg>
